<svg id="visual" viewBox="0 0 900 600" width="900" height="600" xmlns="http://www.w3.org/2000/svg" xmlns:xlink="http://www.w3.org/1999/xlink" version="1.1"><g stroke-width="1" stroke-linejoin="bevel"><path d="M510 290L706 315L561 172Z" fill="#6742d9" stroke="#6742d9"></path><path d="M706 315L739 127L561 172Z" fill="#d488c3" stroke="#d488c3"></path><path d="M510 290L554 462L706 315Z" fill="#ba66c7" stroke="#ba66c7"></path><path d="M554 462L746 428L706 315Z" fill="#e2c0ce" stroke="#e2c0ce"></path><path d="M706 315L900 289L739 127Z" fill="#ba66c7" stroke="#ba66c7"></path><path d="M739 127L545 0L561 172Z" fill="#ba66c7" stroke="#ba66c7"></path><path d="M349 138L329 303L510 290Z" fill="#193de1" stroke="#193de1"></path><path d="M739 127L723 0L545 0Z" fill="#8c4bd2" stroke="#8c4bd2"></path><path d="M349 138L510 290L561 172Z" fill="#e1d4d8" stroke="#e1d4d8"></path><path d="M510 290L379 442L554 462Z" fill="#6742d9" stroke="#6742d9"></path><path d="M746 428L900 289L706 315Z" fill="#dc9ac4" stroke="#dc9ac4"></path><path d="M739 127L900 0L723 0Z" fill="#ba66c7" stroke="#ba66c7"></path><path d="M545 0L349 138L561 172Z" fill="#dc9ac4" stroke="#dc9ac4"></path><path d="M329 303L379 442L510 290Z" fill="#e1adc8" stroke="#e1adc8"></path><path d="M900 289L900 136L739 127Z" fill="#a657cc" stroke="#a657cc"></path><path d="M746 428L900 432L900 289Z" fill="#8c4bd2" stroke="#8c4bd2"></path><path d="M745 600L900 432L746 428Z" fill="#6742d9" stroke="#6742d9"></path><path d="M379 442L517 600L554 462Z" fill="#d488c3" stroke="#d488c3"></path><path d="M554 462L745 600L746 428Z" fill="#8c4bd2" stroke="#8c4bd2"></path><path d="M517 600L745 600L554 462Z" fill="#d488c3" stroke="#d488c3"></path><path d="M545 0L355 0L349 138Z" fill="#dc9ac4" stroke="#dc9ac4"></path><path d="M151 145L166 331L329 303Z" fill="#a657cc" stroke="#a657cc"></path><path d="M900 136L900 0L739 127Z" fill="#d488c3" stroke="#d488c3"></path><path d="M185 444L331 600L379 442Z" fill="#d488c3" stroke="#d488c3"></path><path d="M379 442L331 600L517 600Z" fill="#e2c0ce" stroke="#e2c0ce"></path><path d="M745 600L900 600L900 432Z" fill="#a657cc" stroke="#a657cc"></path><path d="M151 145L329 303L349 138Z" fill="#e1d4d8" stroke="#e1d4d8"></path><path d="M329 303L185 444L379 442Z" fill="#6742d9" stroke="#6742d9"></path><path d="M166 331L185 444L329 303Z" fill="#ba66c7" stroke="#ba66c7"></path><path d="M152 0L151 145L349 138Z" fill="#a657cc" stroke="#a657cc"></path><path d="M0 479L206 600L185 444Z" fill="#a657cc" stroke="#a657cc"></path><path d="M185 444L206 600L331 600Z" fill="#a657cc" stroke="#a657cc"></path><path d="M355 0L152 0L349 138Z" fill="#e2c0ce" stroke="#e2c0ce"></path><path d="M151 145L0 305L166 331Z" fill="#ba66c7" stroke="#ba66c7"></path><path d="M166 331L0 479L185 444Z" fill="#6742d9" stroke="#6742d9"></path><path d="M0 122L0 305L151 145Z" fill="#d488c3" stroke="#d488c3"></path><path d="M152 0L0 122L151 145Z" fill="#6742d9" stroke="#6742d9"></path><path d="M0 305L0 479L166 331Z" fill="#193de1" stroke="#193de1"></path><path d="M152 0L0 0L0 122Z" fill="#e1adc8" stroke="#e1adc8"></path><path d="M0 479L0 600L206 600Z" fill="#dc9ac4" stroke="#dc9ac4"></path></g></svg>