<svg id="visual" viewBox="0 0 900 675" width="900" height="675" xmlns="http://www.w3.org/2000/svg" xmlns:xlink="http://www.w3.org/1999/xlink" version="1.1"><path d="M0 48L30 56C60 64 120 80 180 86.8C240 93.7 300 91.3 360 84.5C420 77.7 480 66.3 540 65.2C600 64 660 73 720 75.3C780 77.7 840 73.3 870 71.2L900 69L900 0L870 0C840 0 780 0 720 0C660 0 600 0 540 0C480 0 420 0 360 0C300 0 240 0 180 0C120 0 60 0 30 0L0 0Z" fill="#230541"></path><path d="M0 116L30 122.7C60 129.3 120 142.7 180 151.7C240 160.7 300 165.3 360 162C420 158.7 480 147.3 540 146.2C600 145 660 154 720 151.8C780 149.7 840 136.3 870 129.7L900 123L900 67L870 69.2C840 71.3 780 75.7 720 73.3C660 71 600 62 540 63.2C480 64.3 420 75.7 360 82.5C300 89.3 240 91.7 180 84.8C120 78 60 62 30 54L0 46Z" fill="#192860"></path><path d="M0 224L30 227.3C60 230.7 120 237.3 180 244C240 250.7 300 257.3 360 263C420 268.7 480 273.3 540 276.8C600 280.3 660 282.7 720 272.5C780 262.3 840 239.7 870 228.3L900 217L900 121L870 127.7C840 134.3 780 147.7 720 149.8C660 152 600 143 540 144.2C480 145.3 420 156.7 360 160C300 163.3 240 158.7 180 149.7C120 140.7 60 127.3 30 120.7L0 114Z" fill="#034679"></path><path d="M0 345L30 344C60 343 120 341 180 338.8C240 336.7 300 334.3 360 336.5C420 338.7 480 345.3 540 353.2C600 361 660 370 720 362.2C780 354.3 840 329.7 870 317.3L900 305L900 215L870 226.3C840 237.7 780 260.3 720 270.5C660 280.7 600 278.3 540 274.8C480 271.3 420 266.7 360 261C300 255.3 240 248.7 180 242C120 235.3 60 228.7 30 225.3L0 222Z" fill="#00638c"></path><path d="M0 568L30 561.3C60 554.7 120 541.3 180 526.7C240 512 300 496 360 499.3C420 502.7 480 525.3 540 533.3C600 541.3 660 534.7 720 515.5C780 496.3 840 464.7 870 448.8L900 433L900 303L870 315.3C840 327.7 780 352.3 720 360.2C660 368 600 359 540 351.2C480 343.3 420 336.7 360 334.5C300 332.3 240 334.7 180 336.8C120 339 60 341 30 342L0 343Z" fill="#007e8a"></path><path d="M0 676L30 676C60 676 120 676 180 676C240 676 300 676 360 676C420 676 480 676 540 676C600 676 660 676 720 676C780 676 840 676 870 676L900 676L900 431L870 446.8C840 462.7 780 494.3 720 513.5C660 532.7 600 539.3 540 531.3C480 523.3 420 500.7 360 497.3C300 494 240 510 180 524.7C120 539.3 60 552.7 30 559.3L0 566Z" fill="#009473"></path></svg>